<?xml version="1.0" encoding="UTF-8" standalone="no"?>
<!-- Created with Inkscape (http://www.inkscape.org/) -->

<svg
   xmlns:dc="http://purl.org/dc/elements/1.1/"
   xmlns:cc="http://creativecommons.org/ns#"
   xmlns:rdf="http://www.w3.org/1999/02/22-rdf-syntax-ns#"
   xmlns:svg="http://www.w3.org/2000/svg"
   xmlns="http://www.w3.org/2000/svg"
   xmlns:sodipodi="http://sodipodi.sourceforge.net/DTD/sodipodi-0.dtd"
   xmlns:inkscape="http://www.inkscape.org/namespaces/inkscape"
   id="svg3020"
   version="1.1"
   inkscape:version="0.48.3.1 r9886"
   width="2606.1897"
   height="123.22237"
   xml:space="preserve"
   sodipodi:docname="title.pdf"
   inkscape:export-filename="/home/josh/dev/bigcompany/know-your-http/title-methods.png"
   inkscape:export-xdpi="300"
   inkscape:export-ydpi="300"><metadata
     id="metadata3026"><rdf:RDF><cc:Work
         rdf:about=""><dc:format>image/svg+xml</dc:format><dc:type
           rdf:resource="http://purl.org/dc/dcmitype/StillImage" /><dc:title></dc:title></cc:Work></rdf:RDF></metadata><defs
     id="defs3024"><clipPath
       clipPathUnits="userSpaceOnUse"
       id="clipPath3038"><path
         d="m 0,217.939 326.717,0 L 326.717,0 0,0 0,217.939 z"
         id="path3040"
         inkscape:connector-curvature="0" /></clipPath></defs><sodipodi:namedview
     pagecolor="#ffffff"
     bordercolor="#666666"
     borderopacity="1"
     objecttolerance="10"
     gridtolerance="10"
     guidetolerance="10"
     inkscape:pageopacity="0"
     inkscape:pageshadow="2"
     inkscape:window-width="1598"
     inkscape:window-height="874"
     id="namedview3022"
     showgrid="false"
     fit-margin-top="0"
     fit-margin-left="0"
     fit-margin-right="0"
     fit-margin-bottom="0"
     showguides="true"
     inkscape:guide-bbox="true"
     inkscape:zoom="0.6359578"
     inkscape:cx="2185.3226"
     inkscape:cy="-221.45407"
     inkscape:window-x="0"
     inkscape:window-y="24"
     inkscape:window-maximized="0"
     inkscape:current-layer="g3028" /><g
     id="g3028"
     inkscape:groupmode="layer"
     inkscape:label="big-company-logo"
     transform="matrix(1.25,0,0,-1.25,-5.4945827,259.52112)"><g
       id="g3066"
       transform="matrix(0.56966626,0,0,0.56966626,-51.524369,92.249739)"
       inkscape:export-filename="/home/josh/dev/bigcompany/know-your-http/title-status-codes.png"
       inkscape:export-xdpi="300"
       inkscape:export-ydpi="300"><path
         id="path3030"
         style="fill:#347abe;fill-opacity:1;fill-rule:nonzero;stroke:none"
         d="m 147.687,133.585 13.8,0 0,-35.132 -13.8,0 0,35.132 z"
         inkscape:connector-curvature="0" /><path
         id="path3032"
         style="fill:#347abe;fill-opacity:1;fill-rule:nonzero;stroke:none"
         d="m 147.414,94.536 14.347,0 0,-12.635 -14.347,0 0,12.635 z"
         inkscape:connector-curvature="0" /><g
         id="g3034"><g
           clip-path="url(#clipPath3038)"
           id="g3036"><g
             transform="translate(139.3628,115.7935)"
             id="g3042"><path
               id="path3044"
               style="fill:#434646;fill-opacity:1;fill-rule:nonzero;stroke:none"
               d="m 0,0 c 0,-9.799 -7.943,-17.743 -17.742,-17.743 -9.799,0 -17.742,7.944 -17.742,17.743 0,9.799 7.943,17.743 17.742,17.743 C -7.943,17.743 0,9.799 0,0"
               inkscape:connector-curvature="0" /></g><g
             transform="translate(205.563,115.7935)"
             id="g3046"><path
               id="path3048"
               style="fill:#434646;fill-opacity:1;fill-rule:nonzero;stroke:none"
               d="m 0,0 c 0,-9.799 -7.943,-17.743 -17.742,-17.743 -9.799,0 -17.743,7.944 -17.743,17.743 0,9.799 7.944,17.743 17.743,17.743 C -7.943,17.743 0,9.799 0,0"
               inkscape:connector-curvature="0" /></g><g
             transform="translate(195.9399,115.7935)"
             id="g3050"><path
               id="path3052"
               style="fill:#ffffff;fill-opacity:1;fill-rule:nonzero;stroke:none"
               d="m 0,0 c 0,-4.484 -3.635,-8.121 -8.119,-8.121 -4.485,0 -8.121,3.637 -8.121,8.121 0,4.485 3.636,8.12 8.121,8.12 C -3.635,8.12 0,4.485 0,0"
               inkscape:connector-curvature="0" /></g><g
             transform="translate(129.7407,115.7935)"
             id="g3054"><path
               id="path3056"
               style="fill:#ffffff;fill-opacity:1;fill-rule:nonzero;stroke:none"
               d="m 0,0 c 0,-4.484 -3.635,-8.121 -8.119,-8.121 -4.485,0 -8.121,3.637 -8.121,8.121 0,4.485 3.636,8.12 8.121,8.12 C -3.635,8.12 0,4.485 0,0"
               inkscape:connector-curvature="0" /></g><g
             transform="translate(211.0288,94.5361)"
             id="g3058"><path
               id="path3060"
               style="fill:#434646;fill-opacity:1;fill-rule:nonzero;stroke:none"
               d="m 0,0 0,39 -13.527,0 0,-39.92 0.002,0 c -0.051,-24.201 -2.347,-50.545 -42.75,-50.545 -40.916,0 -42.991,27.017 -42.991,51.465 l -13.6,0 c 0,-13.457 0.615,-28.885 7.958,-41.673 8.913,-15.521 25.275,-23.391 48.633,-23.391 23.373,0 39.705,7.887 48.544,23.446 7.204,12.68 7.806,27.513 7.806,41.618 L 0,0 z"
               inkscape:connector-curvature="0" /></g><g
             transform="translate(98.2378,137.4531)"
             id="g3062"><path
               id="path3064"
               style="fill:#434646;fill-opacity:1;fill-rule:nonzero;stroke:none"
               d="m 0,0 0,-39 13.527,0 0,39.92 -0.002,0 c 0.051,24.201 2.347,50.545 42.75,50.545 40.916,0 42.991,-27.668 42.991,-52.116 l 13.6,0 c 0,13.457 -0.615,29.536 -7.958,42.324 C 95.995,57.194 79.633,65.064 56.275,65.064 32.902,65.064 16.57,57.177 7.731,41.618 0.527,28.938 -0.075,14.105 -0.075,0 L 0,0 z"
               inkscape:connector-curvature="0" /></g></g></g></g><flowRoot
       xml:space="preserve"
       id="flowRoot3084"
       style="font-size:9px;font-style:normal;font-variant:normal;font-weight:normal;font-stretch:normal;line-height:125%;letter-spacing:0px;word-spacing:0px;fill:#347abe;fill-opacity:1;stroke:none;font-family:Arial;-inkscape-font-specification:Arial"
       transform="matrix(0.8,0,0,-0.8,4.4475073,235.50665)"
       inkscape:export-filename="/home/josh/dev/bigcompany/know-your-http/title-status-codes.png"
       inkscape:export-xdpi="300"
       inkscape:export-ydpi="300"><flowRegion
         id="flowRegion3086"><rect
           id="rect3088"
           width="2671.9514"
           height="213.77364"
           x="101.02872"
           y="6.2897263"
           style="font-size:9px;font-style:normal;font-variant:normal;font-weight:normal;font-stretch:normal;fill:#347abe;fill-opacity:1;font-family:Arial;-inkscape-font-specification:Arial" /></flowRegion><flowPara
         id="flowPara3090"
         style="font-size:144px;font-style:normal;font-variant:normal;font-weight:bold;font-stretch:normal;fill:#347abe;fill-opacity:1;font-family:Arial;-inkscape-font-specification:Arial Bold">KNOW YOUR HTTP STATUS CODES!</flowPara></flowRoot></g></svg>